<svg width="185.061" height="60.553" viewBox="0 0 185.061 60.553" xmlns="http://www.w3.org/2000/svg"><g id="svgGroup" stroke-linecap="round" fill-rule="evenodd" font-size="9pt" stroke="#ffffff" stroke-width="0.25mm" fill="#ffffff" style="stroke:#ffffff;stroke-width:0.25mm;fill:#ffffff"><path d="M 59.475 33.208 L 35.158 33.208 L 35.158 35.747 L 43.947 35.747 L 43.947 50.981 A 17.997 17.997 0 0 1 32.123 57.386 A 23.96 23.96 0 0 1 30.861 57.524 Q 30.08 57.622 29.299 57.622 A 19.414 19.414 0 0 1 19.788 55.319 Q 11.906 50.856 10.224 37.752 A 60.583 60.583 0 0 1 9.768 30.278 A 58.026 58.026 0 0 1 10.435 21.082 Q 11.174 16.498 12.732 13.052 A 16.407 16.407 0 0 1 23.83 3.325 A 21.579 21.579 0 0 1 27.986 2.76 A 24.773 24.773 0 0 1 29.006 2.739 A 28.649 28.649 0 0 1 34.356 3.204 Q 37.348 3.774 39.642 5.042 A 13.135 13.135 0 0 1 43.557 8.306 A 20.115 20.115 0 0 1 45.33 11.106 Q 46.953 14.149 48.371 18.693 A 75.667 75.667 0 0 1 48.83 20.22 L 51.369 20.22 L 50.881 1.274 L 42.385 3.032 A 29.251 29.251 0 0 0 29.299 0.005 Q 17.58 0.005 9.182 7.72 A 28.208 28.208 0 0 0 0.097 27.164 A 38.499 38.499 0 0 0 0.002 29.888 A 35.183 35.183 0 0 0 1.568 40.645 A 27.926 27.926 0 0 0 11.135 54.302 A 29.005 29.005 0 0 0 29.299 60.552 A 28.714 28.714 0 0 0 38.273 59.18 A 26.027 26.027 0 0 0 42.58 57.329 Q 43.178 57.03 43.605 56.731 A 4.853 4.853 0 0 0 43.85 56.548 L 52.15 59.575 L 52.15 35.747 L 59.475 35.747 L 59.475 33.208 Z M 185.061 33.208 L 160.744 33.208 L 160.744 35.747 L 169.533 35.747 L 169.533 50.981 A 17.997 17.997 0 0 1 157.709 57.386 A 23.96 23.96 0 0 1 156.447 57.524 Q 155.666 57.622 154.885 57.622 A 19.414 19.414 0 0 1 145.374 55.319 Q 137.492 50.856 135.81 37.752 A 60.583 60.583 0 0 1 135.354 30.278 A 58.026 58.026 0 0 1 136.02 21.082 Q 136.76 16.498 138.318 13.052 A 16.407 16.407 0 0 1 149.416 3.325 A 21.579 21.579 0 0 1 153.571 2.76 A 24.773 24.773 0 0 1 154.592 2.739 A 28.649 28.649 0 0 1 159.942 3.204 Q 162.934 3.774 165.228 5.042 A 13.135 13.135 0 0 1 169.143 8.306 A 20.115 20.115 0 0 1 170.916 11.106 Q 172.539 14.149 173.957 18.693 A 75.667 75.667 0 0 1 174.416 20.22 L 176.955 20.22 L 176.467 1.274 L 167.971 3.032 A 29.251 29.251 0 0 0 154.885 0.005 Q 143.166 0.005 134.768 7.72 A 28.208 28.208 0 0 0 125.683 27.164 A 38.499 38.499 0 0 0 125.588 29.888 A 35.183 35.183 0 0 0 127.153 40.645 A 27.926 27.926 0 0 0 136.721 54.302 A 29.005 29.005 0 0 0 154.885 60.552 A 28.714 28.714 0 0 0 163.859 59.18 A 26.027 26.027 0 0 0 168.166 57.329 Q 168.764 57.03 169.191 56.731 A 4.853 4.853 0 0 0 169.436 56.548 L 177.736 59.575 L 177.736 35.747 L 185.061 35.747 L 185.061 33.208 Z M 113.772 28.423 L 113.674 28.423 L 113.967 28.423 L 116.994 28.325 A 6.55 6.55 0 0 0 117.826 28.277 Q 119.3 28.087 119.533 27.153 A 5.145 5.145 0 0 0 119.719 26.026 A 6.005 6.005 0 0 0 119.729 25.689 L 105.666 25.689 L 105.666 28.228 L 111.037 28.228 A 42.39 42.39 0 0 1 109.937 38.087 A 33.628 33.628 0 0 1 106.35 47.173 A 230.69 230.69 0 0 1 99.052 38.166 Q 95.605 33.669 92.912 29.599 A 98.879 98.879 0 0 1 88.967 23.149 A 22.187 22.187 0 0 0 94.274 20.96 A 15.803 15.803 0 0 0 100.393 14.653 A 11.509 11.509 0 0 0 101.401 11.983 A 9.618 9.618 0 0 0 101.662 9.771 Q 101.662 3.423 96.096 0.981 A 10.961 10.961 0 0 0 91.506 0.005 A 20.498 20.498 0 0 0 87.056 0.453 Q 81.496 1.691 79.201 6.353 A 12.886 12.886 0 0 0 77.932 12.017 A 16.635 16.635 0 0 0 78.317 15.091 Q 79.097 18.767 81.447 23.735 A 27.337 27.337 0 0 0 75.107 26.289 A 17.759 17.759 0 0 0 66.799 36.138 A 19.352 19.352 0 0 0 65.838 41.564 A 22.097 22.097 0 0 0 65.822 42.388 A 18.806 18.806 0 0 0 66.978 49.111 A 16.594 16.594 0 0 0 72.561 56.45 A 19.907 19.907 0 0 0 82.519 60.379 A 25.946 25.946 0 0 0 85.549 60.552 A 33.811 33.811 0 0 0 93.345 59.626 A 24.159 24.159 0 0 0 103.127 54.79 Q 104.592 56.548 107.424 59.575 L 121.193 59.575 A 4.811 4.811 0 0 0 121.124 58.719 Q 121.045 58.283 120.875 57.965 A 1.542 1.542 0 0 0 119.631 57.134 A 3.17 3.17 0 0 0 119.188 57.058 A 4.244 4.244 0 0 0 118.752 57.036 L 115.139 57.036 A 245.768 245.768 0 0 1 113.826 55.602 Q 111.647 53.203 108.205 49.321 A 33.95 33.95 0 0 0 113.021 36.959 A 46.457 46.457 0 0 0 113.772 28.423 Z M 74.904 46.685 A 20.038 20.038 0 0 0 76.081 50.043 Q 79.569 57.622 88.674 57.622 Q 95.9 57.622 101.564 52.935 Q 89.064 38.189 82.522 25.884 Q 81.057 26.372 79.592 27.349 A 12.057 12.057 0 0 0 77.044 29.791 Q 74.123 33.568 74.123 39.849 A 32.302 32.302 0 0 0 74.233 42.549 A 25.999 25.999 0 0 0 74.904 46.685 Z M 84.793 7.577 A 11.227 11.227 0 0 0 84.475 10.356 A 10.968 10.968 0 0 0 84.529 11.421 Q 84.779 13.987 86.19 17.474 A 49.123 49.123 0 0 0 87.795 21.001 A 21.232 21.232 0 0 0 89.119 20.597 A 18.007 18.007 0 0 0 94.143 17.974 A 18.551 18.551 0 0 0 94.792 17.461 Q 96.147 16.339 97.059 15.126 A 8.743 8.743 0 0 0 98.928 9.771 A 8.79 8.79 0 0 0 98.928 9.725 A 9.226 9.226 0 0 0 98.439 6.841 Q 96.877 2.446 91.701 2.446 A 7.669 7.669 0 0 0 89.26 2.837 A 8.482 8.482 0 0 0 88.721 3.033 Q 85.637 4.276 84.793 7.577 Z" vector-effect="non-scaling-stroke"/></g></svg>